<?xml version="1.0" standalone="no"?>
<!DOCTYPE svg PUBLIC "-//W3C//DTD SVG 20010904//EN"
 "http://www.w3.org/TR/2001/REC-SVG-20010904/DTD/svg10.dtd">
<svg version="1.0" xmlns="http://www.w3.org/2000/svg"
 width="2000.000000pt" height="2000.000000pt" viewBox="0 0 2000.000000 2000.000000"
 preserveAspectRatio="xMidYMid meet">
<metadata>
Created by potrace 1.14, written by Peter Selinger 2001-2017
</metadata>
<g transform="translate(0.000000,2000.000000) scale(0.100000,-0.100000)"
fill="#000000" stroke="none">
<path d="M8820 13050 l0 -780 245 0 245 0 0 501 0 500 1153 -4 c1131 -3 1154
-4 1245 -24 276 -63 497 -185 676 -374 234 -245 349 -538 349 -884 0 -339
-129 -650 -368 -891 -185 -186 -410 -307 -675 -360 -78 -16 -208 -18 -1478
-21 l-1392 -4 2 -242 3 -242 1375 -2 c968 -2 1399 -6 1455 -14 108 -15 249
-61 370 -119 242 -116 455 -328 578 -575 156 -314 174 -682 50 -1015 -65 -175
-157 -315 -297 -456 -206 -206 -470 -331 -768 -363 -63 -7 -485 -11 -1188 -11
l-1090 0 0 515 0 515 -245 0 -245 0 0 -785 0 -785 1403 0 c1400 0 1505 3 1672
36 535 108 1013 507 1209 1012 99 254 121 394 120 762 -1 234 -4 293 -23 393
-79 442 -340 846 -700 1088 -44 30 -80 56 -80 59 0 3 41 32 91 65 108 71 301
256 380 365 226 311 321 602 335 1025 14 439 -52 748 -223 1051 -212 376 -594
672 -1009 782 -220 59 -121 55 -1712 59 l-1463 4 0 -781z"/>
<path d="M9860 12520 l0 -280 813 -2 812 -3 45 -23 c63 -33 109 -79 136 -137
64 -136 -11 -309 -156 -361 -14 -4 -610 -11 -1325 -14 l-1300 -5 -120 -32
c-384 -104 -703 -384 -854 -751 -17 -40 -43 -121 -58 -180 -26 -100 -28 -120
-27 -302 0 -177 3 -204 27 -292 14 -54 41 -135 59 -181 173 -432 574 -733
1046 -787 53 -6 566 -10 1322 -10 l1235 0 50 -24 c55 -25 100 -71 123 -126 19
-46 18 -135 -3 -188 -23 -57 -101 -126 -159 -141 -32 -8 -294 -11 -880 -11
l-836 0 0 -265 0 -266 893 3 892 3 80 27 c111 38 196 90 287 177 112 105 182
224 219 372 20 79 18 278 -4 359 -69 255 -272 460 -539 542 l-73 23 -1315 5
c-1301 6 -1316 6 -1388 27 -226 65 -405 209 -498 398 -60 123 -78 197 -78 330
-2 398 207 689 584 812 67 22 175 23 1465 26 1173 3 1180 3 1258 25 274 76
493 294 564 562 24 89 23 291 -1 379 -80 291 -317 515 -611 576 -63 13 -197
15 -880 15 l-805 0 0 -280z"/>
<path d="M8250 12500 c-453 -150 -853 -455 -1113 -847 -242 -364 -359 -754
-359 -1193 -1 -482 139 -901 431 -1294 81 -110 262 -296 373 -385 170 -136
421 -274 626 -345 l102 -35 0 284 0 284 -22 7 c-51 15 -209 100 -302 162 -100
66 -294 244 -349 319 -141 193 -203 305 -260 469 -171 492 -100 1019 196 1453
72 106 291 323 402 398 85 58 263 153 312 168 22 6 22 7 25 291 2 156 1 284
-2 283 -3 0 -30 -8 -60 -19z"/>
<path d="M8045 6281 c-23 -12 -50 -36 -60 -53 -19 -32 -20 -55 -20 -725 l0
-691 31 -39 c69 -85 191 -76 240 19 12 22 14 145 14 715 0 664 -1 689 -20 720
-40 67 -116 89 -185 54z"/>
<path d="M4995 6130 c-208 -55 -368 -184 -463 -375 -60 -121 -75 -198 -70
-352 5 -140 27 -220 90 -332 37 -64 134 -170 203 -221 254 -188 623 -178 870
24 67 55 83 74 96 118 24 75 -34 162 -115 175 -51 8 -75 -1 -142 -55 -110 -88
-231 -124 -350 -104 -189 31 -332 173 -364 362 -22 130 19 259 116 361 104
108 250 155 391 125 86 -18 134 -41 210 -103 45 -37 66 -47 103 -51 102 -10
177 78 150 177 -22 84 -206 210 -366 251 -102 26 -261 26 -359 0z"/>
<path d="M10389 6111 l-44 -39 -3 -622 -2 -621 22 -40 c14 -25 37 -46 63 -59
39 -19 62 -20 421 -20 413 0 473 6 563 56 69 37 147 118 182 189 81 165 52
351 -77 495 l-23 25 32 65 c30 62 32 71 32 180 0 108 -2 119 -32 182 -54 115
-150 199 -262 232 -46 13 -118 16 -442 16 l-386 0 -44 -39z m780 -251 c47 -13
89 -56 102 -104 15 -54 -10 -118 -59 -151 l-37 -25 -272 0 -273 0 0 145 0 145
253 0 c138 0 268 -4 286 -10z m95 -584 c42 -17 77 -66 83 -115 7 -55 -28 -115
-82 -141 -38 -19 -62 -20 -338 -20 l-297 0 0 145 0 145 300 0 c234 0 308 -3
334 -14z"/>
<path d="M13285 6140 c-27 -11 -61 -49 -74 -83 -6 -16 -11 -64 -11 -108 l0
-79 -60 0 c-113 0 -179 -49 -187 -139 -3 -34 1 -55 16 -79 34 -53 75 -72 159
-72 l72 0 0 -229 c0 -125 5 -253 10 -282 24 -127 119 -253 235 -309 67 -33
184 -55 257 -48 148 15 199 175 85 262 -29 22 -44 26 -104 26 -86 0 -146 28
-174 80 -17 31 -19 60 -19 267 l0 233 128 0 c109 0 132 3 160 20 98 60 94 195
-8 248 -38 19 -60 22 -161 22 l-117 0 -4 101 -3 100 -42 40 c-37 34 -48 39
-90 38 -26 0 -57 -4 -68 -9z"/>
<path d="M7196 5860 c-44 -28 -76 -87 -76 -138 0 -52 19 -91 60 -125 l31 -26
-21 -40 c-44 -87 -50 -139 -50 -434 0 -218 3 -284 14 -305 47 -91 169 -105
235 -26 l29 36 4 272 c4 224 8 279 22 317 37 101 137 175 252 186 72 7 106 23
135 64 46 65 28 149 -45 203 -49 37 -211 19 -318 -35 l-37 -19 -17 25 c-41 63
-155 87 -218 45z"/>
<path d="M5904 5859 c-18 -5 -46 -25 -63 -44 l-31 -36 0 -292 c0 -301 4 -337
45 -431 59 -138 203 -270 340 -311 141 -43 280 -38 405 14 l66 27 18 -24 c68
-90 212 -82 269 15 37 65 15 175 -43 209 l-27 17 28 66 c41 97 49 169 49 433
0 251 -4 274 -48 321 -60 63 -167 53 -217 -21 -25 -37 -25 -37 -25 -293 0
-297 -6 -330 -77 -409 -137 -153 -390 -114 -474 73 -23 49 -24 65 -29 327 -6
312 -7 316 -83 351 -46 21 -57 21 -103 8z"/>
<path d="M8505 5863 c-32 -8 -74 -42 -90 -73 -22 -43 -22 -560 0 -644 61 -233
264 -403 515 -431 67 -7 199 15 265 44 27 12 49 20 51 18 9 -8 -39 -89 -72
-122 -59 -58 -115 -80 -204 -80 -81 0 -134 20 -197 75 -70 62 -155 60 -212 -5
-65 -74 -45 -160 56 -239 309 -243 765 -109 901 265 l27 74 3 502 c3 490 2
503 -18 542 -50 100 -200 99 -251 -1 -17 -34 -19 -61 -19 -292 0 -232 -2 -260
-20 -309 -48 -128 -189 -205 -324 -177 -117 24 -204 115 -225 233 -6 35 -11
170 -11 300 l0 236 -31 35 c-17 20 -47 40 -67 46 -39 10 -45 11 -77 3z"/>
<path d="M11813 5850 c-25 -11 -51 -33 -63 -52 -19 -31 -20 -50 -20 -312 0
-221 3 -291 16 -340 45 -176 181 -328 349 -392 139 -52 289 -52 418 1 34 13
63 23 65 20 11 -11 -57 -109 -96 -140 -111 -86 -258 -85 -365 4 -62 52 -104
65 -155 51 -49 -13 -98 -66 -107 -114 -20 -106 137 -240 331 -281 89 -19 137
-19 231 1 199 41 363 187 435 386 23 62 23 71 26 566 l3 503 -25 44 c-24 41
-79 75 -121 75 -41 0 -97 -34 -120 -75 -25 -41 -25 -44 -25 -297 0 -277 -4
-304 -57 -377 -38 -54 -92 -89 -166 -108 -55 -15 -72 -15 -120 -4 -118 26
-206 117 -226 234 -6 35 -11 169 -11 299 l0 235 -32 35 c-29 32 -81 58 -112
58 -6 0 -30 -9 -53 -20z"/>
<path d="M14320 5860 c-232 -36 -426 -222 -475 -455 -27 -130 -11 -248 51
-375 68 -136 214 -256 360 -295 80 -21 277 -31 331 -16 86 24 130 114 94 195
-31 70 -54 80 -211 87 -93 4 -147 12 -173 23 -45 20 -127 92 -127 112 0 12 61
14 358 14 336 0 359 1 389 20 53 32 66 70 60 169 -12 200 -136 382 -321 470
-99 48 -230 67 -336 51z m215 -315 c50 -24 115 -84 115 -105 0 -6 -94 -10
-245 -10 -277 0 -270 -3 -185 74 88 80 206 95 315 41z"/>
<path d="M15364 5860 c-107 -21 -207 -103 -257 -208 -39 -82 -41 -186 -8 -274
29 -76 105 -159 179 -195 55 -27 63 -28 263 -33 185 -4 209 -7 228 -24 13 -12
21 -31 21 -50 -1 -73 -14 -76 -337 -76 -261 0 -280 -1 -311 -20 -44 -27 -75
-96 -66 -146 9 -48 57 -101 102 -114 49 -13 532 -13 608 1 112 20 212 98 266
207 19 39 23 63 23 142 0 88 -3 101 -33 162 -36 74 -96 133 -170 170 -43 21
-64 23 -252 28 -135 3 -212 9 -226 17 -42 24 -38 99 5 122 12 7 111 11 263 11
225 0 245 2 276 20 98 60 94 195 -8 248 -42 21 -54 22 -285 21 -132 -1 -259
-5 -281 -9z"/>
</g>
</svg>
